<?xml version="1.0" encoding="UTF-8"?>
<svg width="64px" height="18px" viewBox="0 0 64 18" version="1.1" xmlns="http://www.w3.org/2000/svg" xmlns:xlink="http://www.w3.org/1999/xlink">
    <!-- Generator: Sketch 64 (93537) - https://sketch.com -->
    <title>52142ee</title>
    <desc>Created with Sketch.</desc>
    <g id="Checkout" stroke="none" stroke-width="1" fill="none" fill-rule="evenodd">
        <g id="Checkout-Courier-1920" transform="translate(-1148.000000, -896.000000)" fill="#00B33C">
            <g id="Group-16" transform="translate(1148.000000, 817.000000)">
                <g id="52142ee" transform="translate(-0.000000, 79.000000)">
                    <path d="M9.89072165,13.5649485 L7.10721649,13.5649485 C2.76494845,13.5649485 5.91958763,4.34226804 9.57525773,4.34226804 L13.9731959,4.34226804 C14.6783505,4.34226804 15.9216495,4.47216495 16.5340206,2.72783505 L17.4804124,0.018556701 L11.4494845,0.018556701 C8.18350515,0.018556701 5.64123711,1.16907216 3.80412371,3.09896907 C0.630927835,6.40206186 -0.445360825,11.5608247 0.315463918,14.028866 C1.03917526,16.3113402 3.00618557,17.814433 6.08659794,17.8515464 L8.48041237,17.8701031 L11.4309278,17.8701031 L12.1546392,15.6989691 C12.6927835,14.1587629 11.4865979,13.5649485 9.89072165,13.5649485 Z M43.7752577,9.74226804 L44.6845361,6.79175258 L34.9793814,6.79175258 C33.3649485,6.79175258 32.6412371,7.2371134 32.3628866,8.16494845 L31.4536082,11.1154639 L41.1587629,11.1154639 C42.7731959,11.1154639 43.4969072,10.6701031 43.7752577,9.74226804 Z M30.0061856,14.9381443 L29.0969072,17.8886598 L38.8020619,17.8886598 C40.3979381,17.8886598 41.1402062,17.443299 41.4185567,16.5154639 L42.3278351,13.5649485 L32.6226804,13.5649485 C31.0268041,13.5649485 30.3030928,14.0103093 30.0061856,14.9381443 L30.0061856,14.9381443 Z M46.0391753,2.98762887 L46.9484536,0.0371134021 L37.243299,0.0371134021 C35.628866,0.0371134021 34.9051546,0.482474227 34.6268041,1.41030928 L33.7175258,4.36082474 L43.4226804,4.36082474 C45.0185567,4.36082474 45.742268,3.91546392 46.0391753,2.98762887 Z M31.3793814,3.5814433 C30.971134,0.835051546 29.5051546,0.0371134021 25.942268,0.0371134021 L19.4474227,0.0371134021 L15.6618557,11.1154639 L18.0556701,11.1154639 C19.4845361,11.1154639 20.2082474,11.1340206 20.9690722,9.09278351 L22.5463918,4.34226804 L24.9587629,4.34226804 C27.0185567,4.34226804 26.5546392,6.92164948 25.5154639,9.42680412 C24.5876289,11.6350515 22.9731959,13.5835052 21.0247423,13.5835052 L16.9979381,13.5835052 C15.3835052,13.5835052 14.6412371,14.028866 14.3443299,14.956701 L13.342268,17.9072165 L16.2927835,17.9072165 L19.1876289,17.8886598 C21.7484536,17.8701031 23.8453608,17.6845361 26.2948454,15.4762887 C28.8927835,13.1195876 31.8989691,7.07010309 31.3793814,3.5814433 L31.3793814,3.5814433 Z M64.0020619,0.018556701 L58.3793814,0.018556701 L53.0907216,5.64123711 C52.4783505,6.29072165 51.8474227,6.94020619 51.2350515,7.70103093 L51.1793814,7.70103093 L53.814433,0.018556701 L49.2309278,0.018556701 L43.0515464,17.8886598 L47.6350515,17.8886598 L49.6020619,12.2659794 L51.643299,10.5402062 L53.257732,15.6247423 C53.7587629,17.2020619 54.2783505,17.8886598 55.3917526,17.8886598 L58.8989691,17.8886598 L55.2989691,7.90515464 L64.0020619,0.018556701 L64.0020619,0.018556701 Z" id="Shape"></path>
                </g>
            </g>
        </g>
    </g>
</svg>