<svg xmlns="http://www.w3.org/2000/svg" width="33" height="44" viewBox="0 0 33 44"><g><g><path d="M13.05 23.978a1.29 1.29 0 1 0 0-2.578 1.29 1.29 0 0 0 0 2.578z"/></g><g><path d="M19.95 30.878a1.29 1.29 0 1 0 0-2.578 1.29 1.29 0 0 0 0 2.578z"/></g><g><path d="M20.864 21.778a1.289 1.289 0 0 0-1.823 0l-6.903 6.903a1.289 1.289 0 1 0 1.823 1.823l6.903-6.903a1.289 1.289 0 0 0 0-1.823z"/></g><g><path d="M2.716 41.422l.256-2.945h27.05l.256 2.945zm2.537-29.179h4.433v2.853a1.29 1.29 0 1 0 2.578 0v-2.853h8.467v2.853a1.29 1.29 0 1 0 2.578 0v-2.853h4.432L29.798 35.9H3.197zm7.014-5.431a4.237 4.237 0 0 1 4.23-4.234c2.333 0 4.23 1.9 4.23 4.234v2.853h-8.46V6.812zm20.702 35.787l-2.761-31.756a1.29 1.29 0 0 0-1.284-1.178h-5.615V6.812A6.82 6.82 0 0 0 16.497 0a6.82 6.82 0 0 0-6.812 6.812v2.853H4.071a1.29 1.29 0 0 0-1.285 1.178L.025 42.599A1.289 1.289 0 0 0 1.309 44h30.376a1.29 1.29 0 0 0 1.284-1.4z"/></g></g></svg>