<svg xmlns="http://www.w3.org/2000/svg" width="16" height="20" viewBox="0 0 16 20"><g><g><g opacity="-1"><path d="M7.945 14.53a.429.429 0 0 1-.283-.107l-5.406-4.73a.435.435 0 0 1-.145-.296.417.417 0 0 1 .107-.312L3.12 8.06a.429.429 0 0 1 .603-.038l3.11 2.726V.428c0-.236.193-.428.428-.428h1.367c.235 0 .428.192.428.427v10.325l3.11-2.726a.429.429 0 0 1 .603.038l.902 1.026a.431.431 0 0 1 .107.307.435.435 0 0 1-.145.295l-5.406 4.731a.429.429 0 0 1-.282.107z"/></g><g opacity="-1"><path d="M.427 20.002A.429.429 0 0 1 0 19.575v-1.368c0-.235.192-.427.427-.427H15.47c.235 0 .427.192.427.427v1.368a.429.429 0 0 1-.427.427z"/></g></g></g></svg>