<svg xmlns="http://www.w3.org/2000/svg" width="20" height="13" viewBox="0 0 20 13"><g><g><path fill="#556274" d="M.004 6.508C-.121 3.158 2.749.06 6.029.02c1.672-.146 3.298.518 4.563 1.601a29.198 29.198 0 0 1-1.61 1.7c-1.115-.692-2.455-1.219-3.757-.75-2.1.61-3.37 3.146-2.594 5.247.644 2.194 3.253 3.397 5.297 2.476 1.059-.388 1.757-1.387 2.063-2.46-1.213-.025-2.427-.01-3.64-.044-.003-.739-.006-1.474-.003-2.213 2.023-.003 4.05-.009 6.076.01.125 1.809-.136 3.745-1.286 5.197-1.575 2.073-4.484 2.681-6.85 1.868C1.775 11.808-.052 9.22.003 6.508zm16.365-2.793h1.804c.004.617.01 1.236.013 1.853.603.006 1.21.009 1.814.012v1.846l-1.814.01c-.006.619-.01 1.235-.013 1.855-.603-.003-1.207 0-1.808 0-.005-.62-.005-1.236-.012-1.853-.603-.006-1.21-.009-1.814-.012V5.58a357.23 357.23 0 0 0 1.814-.013c.003-.616.01-1.235.016-1.852z"/></g></g></svg>