<svg xmlns="http://www.w3.org/2000/svg" width="26" height="26" viewBox="0 0 26 26"><g><g><path d="M19.398 12.987a6.411 6.411 0 1 1-12.82 0 6.411 6.411 0 0 1 12.82 0zm-2.137 0a4.273 4.273 0 1 0-8.547 0 4.273 4.273 0 0 0 8.547 0zm1.07-6.944a1.603 1.603 0 1 1 3.205 0 1.603 1.603 0 0 1-3.205 0zm7.477.534V19.4c0 3.524-2.885 6.41-6.41 6.41H6.578c-3.526 0-6.411-2.886-6.411-6.41V6.577c0-3.525 2.885-6.41 6.41-6.41h12.82c3.526 0 6.411 2.885 6.411 6.41zm-2.137 0a4.278 4.278 0 0 0-4.273-4.273H6.578a4.279 4.279 0 0 0-4.274 4.273V19.4a4.279 4.279 0 0 0 4.273 4.273h12.82a4.278 4.278 0 0 0 4.274-4.274z"/></g></g></svg>