<svg xmlns="http://www.w3.org/2000/svg" width="19" height="24" viewBox="0 0 19 24"><g><g opacity="-1"><g><path d="M1.694 22.336V10.884h14.801v11.452zM16.764 9.21H1.415c-.77 0-1.395.626-1.395 1.395v12c0 .77.626 1.396 1.395 1.396h15.35c.769 0 1.394-.626 1.394-1.396v-12c0-.769-.625-1.395-1.395-1.395z"/></g><g><path d="M9.097 0C5.327 0 2.26 3.092 2.26 6.893v2.874h1.674V6.893c0-2.877 2.316-5.219 5.163-5.219 2.847 0 5.163 2.342 5.163 5.219v2.874h1.674V6.893c0-3.8-3.067-6.893-6.837-6.893z"/></g><g><path d="M8.957 15.63a.837.837 0 0 0-.837.837v1.954a.837.837 0 1 0 1.674 0v-1.954a.837.837 0 0 0-.837-.837z"/></g></g></g></svg>