<svg xmlns="http://www.w3.org/2000/svg" viewBox="0 0 457.61 72.67"><title>Asset 1</title><g id="Layer_2" data-name="Layer 2"><g id="Слой_1" data-name="Слой 1"><polygon points="21.93 14.66 21.93 29.16 65.56 29.16 65.56 43.68 21.93 43.68 21.93 58.27 80.07 58.27 80.03 72.67 0 72.67 0 0 80.07 0 80.07 14.66 21.93 14.66"/><polygon points="116.28 0.11 145.35 0.11 167.24 48.46 188.99 0.11 218.01 0.11 218.01 72.67 196.34 72.67 196.34 24.65 176.47 68.25 158.01 68.25 138.2 24.04 138.2 72.67 116.28 72.67 116.28 0.11"/><polygon points="247.16 0 271.18 0 294.39 50.43 317.6 0 341.62 0 308.22 72.67 280.57 72.67 247.16 0"/><polygon points="457.61 0 421.46 52.58 421.54 72.67 399.54 72.67 399.54 52.58 363.29 0 387.26 0 410.63 34.04 433.44 0 457.61 0"/></g></g></svg>