<svg xmlns="http://www.w3.org/2000/svg" width="16" height="13" viewBox="0 0 16 13"><g><g opacity="-1"><path fill="#556274" d="M16 1.539a6.55 6.55 0 0 1-1.885.516A3.291 3.291 0 0 0 15.558.24a6.572 6.572 0 0 1-2.084.796A3.283 3.283 0 0 0 7.88 4.03 9.319 9.319 0 0 1 1.114.6 3.282 3.282 0 0 0 2.13 4.982a3.26 3.26 0 0 1-1.487-.41v.04a3.284 3.284 0 0 0 2.633 3.219 3.271 3.271 0 0 1-1.483.056 3.286 3.286 0 0 0 3.067 2.28A6.587 6.587 0 0 1 0 11.525 9.287 9.287 0 0 0 5.031 13c6.038 0 9.34-5 9.34-9.338 0-.142-.003-.284-.01-.424A6.656 6.656 0 0 0 16 1.539z"/></g></g></svg>